<svg width="242" height="226" xmlns="http://www.w3.org/2000/svg" xmlns:xlink="http://www.w3.org/1999/xlink" overflow="hidden"><defs><clipPath id="clip0"><rect x="553" y="87" width="242" height="226"/></clipPath></defs><g clip-path="url(#clip0)" transform="translate(-553 -87)"><path d="M580.5 144.5 782.278 144.5" stroke="#5B9BD5" stroke-width="1.33333" stroke-miterlimit="8" stroke-dasharray="1.33333 1.33333" fill="none" fill-rule="evenodd"/><path d="M0 0 80.8217 0.170604" stroke="#5B9BD5" stroke-width="1.33333" stroke-miterlimit="8" stroke-dasharray="1.33333 1.33333" fill="none" fill-rule="evenodd" transform="matrix(1 0 0 -1 697.5 201.671)"/><text font-family="Cambria Math,Cambria Math_MSFontService,sans-serif" font-weight="400" font-size="24" transform="translate(666.013 306)">𝑎</text><text font-family="Cambria Math,Cambria Math_MSFontService,sans-serif" font-weight="400" font-size="18" transform="translate(679.347 311)">𝑖</text><text font-family="Cambria Math,Cambria Math_MSFontService,sans-serif" font-weight="400" font-size="24" transform="translate(616.303 111)">𝑎</text><text font-family="Cambria Math,Cambria Math_MSFontService,sans-serif" font-weight="400" font-size="18" transform="translate(629.637 116)">𝑖</text><text font-family="Cambria Math,Cambria Math_MSFontService,sans-serif" font-weight="400" font-size="24" transform="translate(719.349 177)">𝑎</text><text font-family="Cambria Math,Cambria Math_MSFontService,sans-serif" font-weight="400" font-size="18" transform="translate(732.682 181)">𝑖</text><text font-family="Cambria Math,Cambria Math_MSFontService,sans-serif" font-weight="400" font-size="24" transform="translate(556.534 206)">𝑏</text><text font-family="Cambria Math,Cambria Math_MSFontService,sans-serif" font-weight="400" font-size="18" transform="translate(566.641 211)">𝑗</text><text font-family="Cambria Math,Cambria Math_MSFontService,sans-serif" font-weight="400" font-size="24" transform="translate(771.038 237)">𝑏</text><text font-family="Cambria Math,Cambria Math_MSFontService,sans-serif" font-weight="400" font-size="18" transform="translate(781.145 242)">𝑗</text><path d="M756.5 203.5C759.814 203.5 762.5 209.32 762.5 216.5L762.5 216.5C762.5 223.68 765.186 229.5 768.5 229.5 765.186 229.5 762.5 235.32 762.5 242.5L762.5 242.5C762.5 249.68 759.814 255.5 756.5 255.5" stroke="#5B9BD5" stroke-width="1.33333" stroke-miterlimit="8" stroke-dasharray="1.33333 1.33333" fill="none" fill-rule="evenodd"/><path d="M607.5 127.5C607.5 124.186 611.977 121.5 617.5 121.5L617.5 121.5C623.023 121.5 627.5 118.814 627.5 115.5 627.5 118.814 631.977 121.5 637.5 121.5L637.5 121.5C643.023 121.5 647.5 124.186 647.5 127.5" stroke="#5B9BD5" stroke-width="1.33333" stroke-miterlimit="8" stroke-dasharray="1.33333 1.33333" fill="none" fill-rule="evenodd"/><path d="M712.5 192.5C712.5 189.186 715.746 186.5 719.75 186.5L719.75 186.5C723.754 186.5 727 183.814 727 180.5 727 183.814 730.246 186.5 734.25 186.5L734.25 186.5C738.254 186.5 741.5 189.186 741.5 192.5" stroke="#5B9BD5" stroke-width="1.33333" stroke-miterlimit="8" stroke-dasharray="1.33333 1.33333" fill="none" fill-rule="evenodd"/><path d="M702.5 278.5C702.5 281.814 696.232 284.5 688.5 284.5L688.5 284.5C680.768 284.5 674.5 287.186 674.5 290.5 674.5 287.186 668.232 284.5 660.5 284.5L660.5 284.5C652.768 284.5 646.5 281.814 646.5 278.5" stroke="#5B9BD5" stroke-width="1.33333" stroke-miterlimit="8" stroke-dasharray="1.33333 1.33333" fill="none" fill-rule="evenodd"/><path d="M580.5 258.5 782.676 258.93" stroke="#5B9BD5" stroke-width="1.33333" stroke-miterlimit="8" stroke-dasharray="1.33333 1.33333" fill="none" fill-rule="evenodd"/><path d="M597.5 250C597.5 244.753 601.977 240.5 607.5 240.5 613.023 240.5 617.5 244.753 617.5 250 617.5 255.247 613.023 259.5 607.5 259.5 601.977 259.5 597.5 255.247 597.5 250Z" stroke="#223F59" stroke-width="1.33333" stroke-miterlimit="8" fill="#5B9BD5" fill-rule="evenodd"/><path d="M597.5 211.5C597.5 205.977 601.977 201.5 607.5 201.5 613.023 201.5 617.5 205.977 617.5 211.5 617.5 217.023 613.023 221.5 607.5 221.5 601.977 221.5 597.5 217.023 597.5 211.5Z" stroke="#223F59" stroke-width="1.33333" stroke-miterlimit="8" fill="#5B9BD5" fill-rule="evenodd"/><path d="M597.5 231C597.5 225.753 601.977 221.5 607.5 221.5 613.023 221.5 617.5 225.753 617.5 231 617.5 236.247 613.023 240.5 607.5 240.5 601.977 240.5 597.5 236.247 597.5 231Z" stroke="#223F59" stroke-width="1.33333" stroke-miterlimit="8" fill="#5B9BD5" fill-rule="evenodd"/><path d="M597.5 192C597.5 186.753 601.977 182.5 607.5 182.5 613.023 182.5 617.5 186.753 617.5 192 617.5 197.247 613.023 201.5 607.5 201.5 601.977 201.5 597.5 197.247 597.5 192Z" stroke="#223F59" stroke-width="1.33333" stroke-miterlimit="8" fill="#5B9BD5" fill-rule="evenodd"/><path d="M597.5 154C597.5 148.753 601.977 144.5 607.5 144.5 613.023 144.5 617.5 148.753 617.5 154 617.5 159.247 613.023 163.5 607.5 163.5 601.977 163.5 597.5 159.247 597.5 154Z" stroke="#223F59" stroke-width="1.33333" stroke-miterlimit="8" fill="#5B9BD5" fill-rule="evenodd"/><path d="M597.5 173C597.5 167.753 601.977 163.5 607.5 163.5 613.023 163.5 617.5 167.753 617.5 173 617.5 178.247 613.023 182.5 607.5 182.5 601.977 182.5 597.5 178.247 597.5 173Z" stroke="#223F59" stroke-width="1.33333" stroke-miterlimit="8" fill="#5B9BD5" fill-rule="evenodd"/><path d="M607.5 137C607.5 131.753 611.753 127.5 617 127.5 622.247 127.5 626.5 131.753 626.5 137 626.5 142.247 622.247 146.5 617 146.5 611.753 146.5 607.5 142.247 607.5 137Z" stroke="#223F59" stroke-width="1.33333" stroke-miterlimit="8" fill="#5B9BD5" fill-rule="evenodd"/><path d="M626.5 137C626.5 131.753 630.753 127.5 636 127.5 641.247 127.5 645.5 131.753 645.5 137 645.5 142.247 641.247 146.5 636 146.5 630.753 146.5 626.5 142.247 626.5 137Z" stroke="#223F59" stroke-width="1.33333" stroke-miterlimit="8" fill="#5B9BD5" fill-rule="evenodd"/><path d="M636.5 154C636.5 148.753 640.753 144.5 646 144.5 651.247 144.5 655.5 148.753 655.5 154 655.5 159.247 651.247 163.5 646 163.5 640.753 163.5 636.5 159.247 636.5 154Z" stroke="#223F59" stroke-width="1.33333" stroke-miterlimit="8" fill="#5B9BD5" fill-rule="evenodd"/><path d="M636.5 173C636.5 167.753 640.753 163.5 646 163.5 651.247 163.5 655.5 167.753 655.5 173 655.5 178.247 651.247 182.5 646 182.5 640.753 182.5 636.5 178.247 636.5 173Z" stroke="#223F59" stroke-width="1.33333" stroke-miterlimit="8" fill="#5B9BD5" fill-rule="evenodd"/><path d="M636.5 192C636.5 186.753 640.753 182.5 646 182.5 651.247 182.5 655.5 186.753 655.5 192 655.5 197.247 651.247 201.5 646 201.5 640.753 201.5 636.5 197.247 636.5 192Z" stroke="#223F59" stroke-width="1.33333" stroke-miterlimit="8" fill="#5B9BD5" fill-rule="evenodd"/><path d="M636.5 211.5C636.5 205.977 640.753 201.5 646 201.5 651.247 201.5 655.5 205.977 655.5 211.5 655.5 217.023 651.247 221.5 646 221.5 640.753 221.5 636.5 217.023 636.5 211.5Z" stroke="#223F59" stroke-width="1.33333" stroke-miterlimit="8" fill="#5B9BD5" fill-rule="evenodd"/><path d="M636.5 231C636.5 225.753 640.753 221.5 646 221.5 651.247 221.5 655.5 225.753 655.5 231 655.5 236.247 651.247 240.5 646 240.5 640.753 240.5 636.5 236.247 636.5 231Z" stroke="#223F59" stroke-width="1.33333" stroke-miterlimit="8" fill="#5B9BD5" fill-rule="evenodd"/><path d="M636.5 250C636.5 244.753 640.753 240.5 646 240.5 651.247 240.5 655.5 244.753 655.5 250 655.5 255.247 651.247 259.5 646 259.5 640.753 259.5 636.5 255.247 636.5 250Z" stroke="#223F59" stroke-width="1.33333" stroke-miterlimit="8" fill="#5B9BD5" fill-rule="evenodd"/><path d="M717.5 200C717.5 194.753 721.753 190.5 727 190.5 732.247 190.5 736.5 194.753 736.5 200 736.5 205.247 732.247 209.5 727 209.5 721.753 209.5 717.5 205.247 717.5 200Z" stroke="#223F59" stroke-width="1.33333" stroke-miterlimit="8" fill="#5B9BD5" fill-rule="evenodd"/><path d="M734.5 211.5C734.5 205.977 738.753 201.5 744 201.5 749.247 201.5 753.5 205.977 753.5 211.5 753.5 217.023 749.247 221.5 744 221.5 738.753 221.5 734.5 217.023 734.5 211.5Z" stroke="#223F59" stroke-width="1.33333" stroke-miterlimit="8" fill="#5B9BD5" fill-rule="evenodd"/><path d="M734.5 231C734.5 225.753 738.753 221.5 744 221.5 749.247 221.5 753.5 225.753 753.5 231 753.5 236.247 749.247 240.5 744 240.5 738.753 240.5 734.5 236.247 734.5 231Z" stroke="#223F59" stroke-width="1.33333" stroke-miterlimit="8" fill="#5B9BD5" fill-rule="evenodd"/><path d="M701.5 211.5C701.5 205.977 705.753 201.5 711 201.5 716.247 201.5 720.5 205.977 720.5 211.5 720.5 217.023 716.247 221.5 711 221.5 705.753 221.5 701.5 217.023 701.5 211.5Z" stroke="#223F59" stroke-width="1.33333" stroke-miterlimit="8" fill="#5B9BD5" fill-rule="evenodd"/><path d="M701.5 231C701.5 225.753 705.753 221.5 711 221.5 716.247 221.5 720.5 225.753 720.5 231 720.5 236.247 716.247 240.5 711 240.5 705.753 240.5 701.5 236.247 701.5 231Z" stroke="#223F59" stroke-width="1.33333" stroke-miterlimit="8" fill="#5B9BD5" fill-rule="evenodd"/><path d="M667.5 272C667.5 266.753 671.753 262.5 677 262.5 682.247 262.5 686.5 266.753 686.5 272 686.5 277.247 682.247 281.5 677 281.5 671.753 281.5 667.5 277.247 667.5 272Z" stroke="#223F59" stroke-width="1.33333" stroke-miterlimit="8" fill="#5B9BD5" fill-rule="evenodd"/><path d="M649.5 265C649.5 259.753 653.753 255.5 659 255.5 664.247 255.5 668.5 259.753 668.5 265 668.5 270.247 664.247 274.5 659 274.5 653.753 274.5 649.5 270.247 649.5 265Z" stroke="#223F59" stroke-width="1.33333" stroke-miterlimit="8" fill="#5B9BD5" fill-rule="evenodd"/><path d="M698.5 250C698.5 244.753 702.753 240.5 708 240.5 713.247 240.5 717.5 244.753 717.5 250 717.5 255.247 713.247 259.5 708 259.5 702.753 259.5 698.5 255.247 698.5 250Z" stroke="#223F59" stroke-width="1.33333" stroke-miterlimit="8" fill="#5B9BD5" fill-rule="evenodd"/><path d="M735.5 250C735.5 244.753 739.753 240.5 745 240.5 750.247 240.5 754.5 244.753 754.5 250 754.5 255.247 750.247 259.5 745 259.5 739.753 259.5 735.5 255.247 735.5 250Z" stroke="#223F59" stroke-width="1.33333" stroke-miterlimit="8" fill="#5B9BD5" fill-rule="evenodd"/><path d="M685.5 264.5C685.5 258.977 689.753 254.5 695 254.5 700.247 254.5 704.5 258.977 704.5 264.5 704.5 270.023 700.247 274.5 695 274.5 689.753 274.5 685.5 270.023 685.5 264.5Z" stroke="#223F59" stroke-width="1.33333" stroke-miterlimit="8" fill="#5B9BD5" fill-rule="evenodd"/><path d="M592.5 256.5C588.082 256.5 584.5 244.188 584.5 229L584.5 229C584.5 213.812 580.918 201.5 576.5 201.5 580.918 201.5 584.5 189.188 584.5 174L584.5 174C584.5 158.812 588.082 146.5 592.5 146.5" stroke="#5B9BD5" stroke-width="1.33333" stroke-miterlimit="8" stroke-dasharray="1.33333 1.33333" fill="none" fill-rule="evenodd"/></g></svg>