<svg width="286" height="225" xmlns="http://www.w3.org/2000/svg" xmlns:xlink="http://www.w3.org/1999/xlink" overflow="hidden"><defs><clipPath id="clip0"><rect x="495" y="207" width="286" height="225"/></clipPath></defs><g clip-path="url(#clip0)" transform="translate(-495 -207)"><path d="M535.5 371C535.5 365.753 539.753 361.5 545 361.5 550.247 361.5 554.5 365.753 554.5 371 554.5 376.247 550.247 380.5 545 380.5 539.753 380.5 535.5 376.247 535.5 371Z" stroke="#223F59" stroke-width="1.33333" stroke-miterlimit="8" fill="#5B9BD5" fill-rule="evenodd"/><path d="M535.5 332C535.5 326.753 539.753 322.5 545 322.5 550.247 322.5 554.5 326.753 554.5 332 554.5 337.247 550.247 341.5 545 341.5 539.753 341.5 535.5 337.247 535.5 332Z" stroke="#223F59" stroke-width="1.33333" stroke-miterlimit="8" fill="#5B9BD5" fill-rule="evenodd"/><path d="M535.5 351.5C535.5 345.977 539.753 341.5 545 341.5 550.247 341.5 554.5 345.977 554.5 351.5 554.5 357.023 550.247 361.5 545 361.5 539.753 361.5 535.5 357.023 535.5 351.5Z" stroke="#223F59" stroke-width="1.33333" stroke-miterlimit="8" fill="#5B9BD5" fill-rule="evenodd"/><path d="M535.5 313C535.5 307.753 539.753 303.5 545 303.5 550.247 303.5 554.5 307.753 554.5 313 554.5 318.247 550.247 322.5 545 322.5 539.753 322.5 535.5 318.247 535.5 313Z" stroke="#223F59" stroke-width="1.33333" stroke-miterlimit="8" fill="#5B9BD5" fill-rule="evenodd"/><path d="M535.5 275C535.5 269.753 539.753 265.5 545 265.5 550.247 265.5 554.5 269.753 554.5 275 554.5 280.247 550.247 284.5 545 284.5 539.753 284.5 535.5 280.247 535.5 275Z" stroke="#223F59" stroke-width="1.33333" stroke-miterlimit="8" fill="#5B9BD5" fill-rule="evenodd"/><path d="M535.5 294C535.5 288.753 539.753 284.5 545 284.5 550.247 284.5 554.5 288.753 554.5 294 554.5 299.247 550.247 303.5 545 303.5 539.753 303.5 535.5 299.247 535.5 294Z" stroke="#223F59" stroke-width="1.33333" stroke-miterlimit="8" fill="#5B9BD5" fill-rule="evenodd"/><path d="M545.5 258C545.5 252.753 549.753 248.5 555 248.5 560.247 248.5 564.5 252.753 564.5 258 564.5 263.247 560.247 267.5 555 267.5 549.753 267.5 545.5 263.247 545.5 258Z" stroke="#223F59" stroke-width="1.33333" stroke-miterlimit="8" fill="#5B9BD5" fill-rule="evenodd"/><path d="M564.5 258C564.5 252.753 568.753 248.5 574 248.5 579.247 248.5 583.5 252.753 583.5 258 583.5 263.247 579.247 267.5 574 267.5 568.753 267.5 564.5 263.247 564.5 258Z" stroke="#223F59" stroke-width="1.33333" stroke-miterlimit="8" fill="#5B9BD5" fill-rule="evenodd"/><path d="M573.5 275C573.5 269.753 577.977 265.5 583.5 265.5 589.023 265.5 593.5 269.753 593.5 275 593.5 280.247 589.023 284.5 583.5 284.5 577.977 284.5 573.5 280.247 573.5 275Z" stroke="#223F59" stroke-width="1.33333" stroke-miterlimit="8" fill="#5B9BD5" fill-rule="evenodd"/><path d="M574.5 294C574.5 288.753 578.753 284.5 584 284.5 589.247 284.5 593.5 288.753 593.5 294 593.5 299.247 589.247 303.5 584 303.5 578.753 303.5 574.5 299.247 574.5 294Z" stroke="#223F59" stroke-width="1.33333" stroke-miterlimit="8" fill="#5B9BD5" fill-rule="evenodd"/><path d="M573.5 313C573.5 307.753 577.977 303.5 583.5 303.5 589.023 303.5 593.5 307.753 593.5 313 593.5 318.247 589.023 322.5 583.5 322.5 577.977 322.5 573.5 318.247 573.5 313Z" stroke="#223F59" stroke-width="1.33333" stroke-miterlimit="8" fill="#5B9BD5" fill-rule="evenodd"/><path d="M573.5 332C573.5 326.753 577.977 322.5 583.5 322.5 589.023 322.5 593.5 326.753 593.5 332 593.5 337.247 589.023 341.5 583.5 341.5 577.977 341.5 573.5 337.247 573.5 332Z" stroke="#223F59" stroke-width="1.33333" stroke-miterlimit="8" fill="#5B9BD5" fill-rule="evenodd"/><path d="M573.5 351.5C573.5 345.977 577.977 341.5 583.5 341.5 589.023 341.5 593.5 345.977 593.5 351.5 593.5 357.023 589.023 361.5 583.5 361.5 577.977 361.5 573.5 357.023 573.5 351.5Z" stroke="#223F59" stroke-width="1.33333" stroke-miterlimit="8" fill="#5B9BD5" fill-rule="evenodd"/><path d="M573.5 371C573.5 365.753 577.977 361.5 583.5 361.5 589.023 361.5 593.5 365.753 593.5 371 593.5 376.247 589.023 380.5 583.5 380.5 577.977 380.5 573.5 376.247 573.5 371Z" stroke="#223F59" stroke-width="1.33333" stroke-miterlimit="8" fill="#5B9BD5" fill-rule="evenodd"/><path d="M655.5 321C655.5 315.753 659.753 311.5 665 311.5 670.247 311.5 674.5 315.753 674.5 321 674.5 326.247 670.247 330.5 665 330.5 659.753 330.5 655.5 326.247 655.5 321Z" stroke="#223F59" stroke-width="1.33333" stroke-miterlimit="8" fill="#5B9BD5" fill-rule="evenodd"/><path d="M672.5 332C672.5 326.753 676.753 322.5 682 322.5 687.247 322.5 691.5 326.753 691.5 332 691.5 337.247 687.247 341.5 682 341.5 676.753 341.5 672.5 337.247 672.5 332Z" stroke="#223F59" stroke-width="1.33333" stroke-miterlimit="8" fill="#5B9BD5" fill-rule="evenodd"/><path d="M672.5 351.5C672.5 345.977 676.753 341.5 682 341.5 687.247 341.5 691.5 345.977 691.5 351.5 691.5 357.023 687.247 361.5 682 361.5 676.753 361.5 672.5 357.023 672.5 351.5Z" stroke="#223F59" stroke-width="1.33333" stroke-miterlimit="8" fill="#5B9BD5" fill-rule="evenodd"/><path d="M639.5 332C639.5 326.753 643.753 322.5 649 322.5 654.247 322.5 658.5 326.753 658.5 332 658.5 337.247 654.247 341.5 649 341.5 643.753 341.5 639.5 337.247 639.5 332Z" stroke="#223F59" stroke-width="1.33333" stroke-miterlimit="8" fill="#5B9BD5" fill-rule="evenodd"/><path d="M639.5 351.5C639.5 345.977 643.753 341.5 649 341.5 654.247 341.5 658.5 345.977 658.5 351.5 658.5 357.023 654.247 361.5 649 361.5 643.753 361.5 639.5 357.023 639.5 351.5Z" stroke="#223F59" stroke-width="1.33333" stroke-miterlimit="8" fill="#5B9BD5" fill-rule="evenodd"/><path d="M623.5 386C623.5 380.753 627.753 376.5 633 376.5 638.247 376.5 642.5 380.753 642.5 386 642.5 391.247 638.247 395.5 633 395.5 627.753 395.5 623.5 391.247 623.5 386Z" stroke="#223F59" stroke-width="1.33333" stroke-miterlimit="8" fill="#5B9BD5" fill-rule="evenodd"/><path d="M605.5 393C605.5 387.753 609.753 383.5 615 383.5 620.247 383.5 624.5 387.753 624.5 393 624.5 398.247 620.247 402.5 615 402.5 609.753 402.5 605.5 398.247 605.5 393Z" stroke="#223F59" stroke-width="1.33333" stroke-miterlimit="8" fill="#5B9BD5" fill-rule="evenodd"/><path d="M586.5 386C586.5 380.753 590.977 376.5 596.5 376.5 602.023 376.5 606.5 380.753 606.5 386 606.5 391.247 602.023 395.5 596.5 395.5 590.977 395.5 586.5 391.247 586.5 386Z" stroke="#223F59" stroke-width="1.33333" stroke-miterlimit="8" fill="#5B9BD5" fill-rule="evenodd"/><path d="M636.5 371C636.5 365.753 640.753 361.5 646 361.5 651.247 361.5 655.5 365.753 655.5 371 655.5 376.247 651.247 380.5 646 380.5 640.753 380.5 636.5 376.247 636.5 371Z" stroke="#223F59" stroke-width="1.33333" stroke-miterlimit="8" fill="#5B9BD5" fill-rule="evenodd"/><path d="M672.5 371C672.5 365.753 676.977 361.5 682.5 361.5 688.023 361.5 692.5 365.753 692.5 371 692.5 376.247 688.023 380.5 682.5 380.5 676.977 380.5 672.5 376.247 672.5 371Z" stroke="#223F59" stroke-width="1.33333" stroke-miterlimit="8" fill="#5B9BD5" fill-rule="evenodd"/><path d="M0 0 266.444 2.13333" stroke="#5B9BD5" stroke-width="1.33333" stroke-miterlimit="8" stroke-dasharray="1.33333 1.33333" fill="none" fill-rule="evenodd" transform="matrix(1 0 0 -1 513.5 267.633)"/><path d="M0 0 266.444 2.13333" stroke="#5B9BD5" stroke-width="1.33333" stroke-miterlimit="8" stroke-dasharray="1.33333 1.33333" fill="none" fill-rule="evenodd" transform="matrix(1 0 0 -1 513.5 380.633)"/><path d="M0 0 154.889 1.6" stroke="#5B9BD5" stroke-width="1.33333" stroke-miterlimit="8" stroke-dasharray="1.33333 1.33333" fill="none" fill-rule="evenodd" transform="matrix(1 0 0 -1 624.5 326.1)"/><text font-family="Cambria Math,Cambria Math_MSFontService,sans-serif" font-weight="400" font-size="24" transform="translate(606.14 425)">𝑎</text><text font-family="Cambria Math,Cambria Math_MSFontService,sans-serif" font-weight="400" font-size="18" transform="translate(619.474 430)">𝑖</text><text font-family="Cambria Math,Cambria Math_MSFontService,sans-serif" font-weight="400" font-size="24" transform="translate(553.351 231)">𝑎</text><text font-family="Cambria Math,Cambria Math_MSFontService,sans-serif" font-weight="400" font-size="18" transform="translate(566.684 236)">𝑖</text><text font-family="Cambria Math,Cambria Math_MSFontService,sans-serif" font-weight="400" font-size="24" transform="translate(655.514 299)">𝑎</text><text font-family="Cambria Math,Cambria Math_MSFontService,sans-serif" font-weight="400" font-size="18" transform="translate(668.847 304)">𝑖</text><text font-family="Cambria Math,Cambria Math_MSFontService,sans-serif" font-weight="400" font-size="24" transform="translate(498.621 330)">𝑏</text><text font-family="Cambria Math,Cambria Math_MSFontService,sans-serif" font-weight="400" font-size="18" transform="translate(508.728 335)">𝑗</text><text font-family="Cambria Math,Cambria Math_MSFontService,sans-serif" font-weight="400" font-size="24" transform="translate(705.649 359)">𝑏</text><text font-family="Cambria Math,Cambria Math_MSFontService,sans-serif" font-weight="400" font-size="18" transform="translate(715.756 364)">𝑗</text><path d="M691.5 326.5C695.09 326.5 698 332.32 698 339.5L698 339.5C698 346.68 700.91 352.5 704.5 352.5 700.91 352.5 698 358.32 698 365.5L698 365.5C698 372.68 695.09 378.5 691.5 378.5" stroke="#5B9BD5" stroke-width="1.33333" stroke-miterlimit="8" stroke-dasharray="1.33333 1.33333" fill="none" fill-rule="evenodd"/><path d="M544.5 248.5C544.5 244.91 548.977 242 554.5 242L554.5 242C560.023 242 564.5 239.09 564.5 235.5 564.5 239.09 568.977 242 574.5 242L574.5 242C580.023 242 584.5 244.91 584.5 248.5" stroke="#5B9BD5" stroke-width="1.33333" stroke-miterlimit="8" stroke-dasharray="1.33333 1.33333" fill="none" fill-rule="evenodd"/><path d="M650.5 314.5C650.5 311.186 653.746 308.5 657.75 308.5L657.75 308.5C661.754 308.5 665 305.814 665 302.5 665 305.814 668.246 308.5 672.25 308.5L672.25 308.5C676.254 308.5 679.5 311.186 679.5 314.5" stroke="#5B9BD5" stroke-width="1.33333" stroke-miterlimit="8" stroke-dasharray="1.33333 1.33333" fill="none" fill-rule="evenodd"/><path d="M642.5 398.5C642.5 402.09 636.232 405 628.5 405L628.5 405C620.768 405 614.5 407.91 614.5 411.5 614.5 407.91 608.232 405 600.5 405L600.5 405C592.768 405 586.5 402.09 586.5 398.5" stroke="#5B9BD5" stroke-width="1.33333" stroke-miterlimit="8" stroke-dasharray="1.33333 1.33333" fill="none" fill-rule="evenodd"/></g></svg>