<svg class="main-svg" xmlns="http://www.w3.org/2000/svg" xmlns:xlink="http://www.w3.org/1999/xlink" width="800" height="500" style="" viewBox="0 0 800 500"><rect x="0" y="0" width="800" height="500" style="fill: rgb(0, 0, 0); fill-opacity: 0;"/><defs id="defs-534719"><g class="clips"><clipPath id="clip534719xyplot" class="plotclip"><rect width="760" height="500"/></clipPath><clipPath class="axesclip" id="clip534719x"><rect x="20" y="0" width="760" height="500"/></clipPath><clipPath class="axesclip" id="clip534719y"><rect x="0" y="0" width="800" height="500"/></clipPath><clipPath class="axesclip" id="clip534719xy"><rect x="20" y="0" width="760" height="500"/></clipPath></g><g class="gradients"/><g class="patterns"/></defs><g class="bglayer"><rect class="bg" x="20" y="0" width="760" height="500" style="fill: rgb(0, 0, 0); fill-opacity: 0; stroke-width: 0;"/></g><g class="layer-below"><g class="imagelayer"/><g class="shapelayer"><g class="shape-group" data-index="18" clip-path="url(#clip534719y)"><path data-index="18" fill-rule="evenodd" d="M20,406.25H780V93.75H20Z" style="opacity: 0.5; stroke: rgb(0, 0, 0); stroke-opacity: 0; fill: rgb(248, 203, 173); fill-opacity: 1; stroke-width: 0px;"/></g></g></g><g class="cartesianlayer"><g class="subplot xy"><g class="layer-subplot"><g class="shapelayer"><g class="shape-group" data-index="9" clip-path="url(#clip534719xy)"><path data-index="9" fill-rule="evenodd" d="M236.09,406.25A31.25,31.25 0 1,1 204.84,375A31.25,31.25 0 0,1 236.09,406.25Z" style="opacity: 1; stroke: rgb(34, 63, 89); stroke-opacity: 1; fill: rgb(91, 155, 213); fill-opacity: 1; stroke-width: 2px;"/></g><g class="shape-group" data-index="10" clip-path="url(#clip534719xy)"><path data-index="10" fill-rule="evenodd" d="M284.88,367.19A31.25,31.25 0 1,1 253.63,335.94A31.25,31.25 0 0,1 284.88,367.19Z" style="opacity: 1; stroke: rgb(34, 63, 89); stroke-opacity: 1; fill: rgb(91, 155, 213); fill-opacity: 1; stroke-width: 2px;"/></g><g class="shape-group" data-index="11" clip-path="url(#clip534719xy)"><path data-index="11" fill-rule="evenodd" d="M236.09,328.13A31.25,31.25 0 1,1 204.84,296.88A31.25,31.25 0 0,1 236.09,328.13Z" style="opacity: 1; stroke: rgb(34, 63, 89); stroke-opacity: 1; fill: rgb(91, 155, 213); fill-opacity: 1; stroke-width: 2px;"/></g><g class="shape-group" data-index="12" clip-path="url(#clip534719xy)"><path data-index="12" fill-rule="evenodd" d="M284.88,289.06A31.25,31.25 0 1,1 253.63,257.81A31.25,31.25 0 0,1 284.88,289.06Z" style="opacity: 1; stroke: rgb(34, 63, 89); stroke-opacity: 1; fill: rgb(91, 155, 213); fill-opacity: 1; stroke-width: 2px;"/></g><g class="shape-group" data-index="13" clip-path="url(#clip534719xy)"><path data-index="13" fill-rule="evenodd" d="M236.09,250A31.25,31.25 0 1,1 204.84,218.75A31.25,31.25 0 0,1 236.09,250Z" style="opacity: 1; stroke: rgb(34, 63, 89); stroke-opacity: 1; fill: rgb(91, 155, 213); fill-opacity: 1; stroke-width: 2px;"/></g><g class="shape-group" data-index="14" clip-path="url(#clip534719xy)"><path data-index="14" fill-rule="evenodd" d="M284.88,210.94A31.25,31.25 0 1,1 253.63,179.69A31.25,31.25 0 0,1 284.88,210.94Z" style="opacity: 1; stroke: rgb(34, 63, 89); stroke-opacity: 1; fill: rgb(91, 155, 213); fill-opacity: 1; stroke-width: 2px;"/></g><g class="shape-group" data-index="15" clip-path="url(#clip534719xy)"><path data-index="15" fill-rule="evenodd" d="M236.09,171.88A31.25,31.25 0 1,1 204.84,140.63A31.25,31.25 0 0,1 236.09,171.88Z" style="opacity: 1; stroke: rgb(34, 63, 89); stroke-opacity: 1; fill: rgb(91, 155, 213); fill-opacity: 1; stroke-width: 2px;"/></g><g class="shape-group" data-index="16" clip-path="url(#clip534719xy)"><path data-index="16" fill-rule="evenodd" d="M284.88,132.81A31.25,31.25 0 1,1 253.63,101.56A31.25,31.25 0 0,1 284.88,132.81Z" style="opacity: 1; stroke: rgb(34, 63, 89); stroke-opacity: 1; fill: rgb(91, 155, 213); fill-opacity: 1; stroke-width: 2px;"/></g><g class="shape-group" data-index="17" clip-path="url(#clip534719xy)"><path data-index="17" fill-rule="evenodd" d="M236.09,93.75A31.25,31.25 0 1,1 204.84,62.5A31.25,31.25 0 0,1 236.09,93.75Z" style="opacity: 1; stroke: rgb(34, 63, 89); stroke-opacity: 1; fill: rgb(91, 155, 213); fill-opacity: 1; stroke-width: 2px;"/></g></g><g class="imagelayer"/></g><g class="minor-gridlayer"><g class="x"/><g class="y"/></g><g class="gridlayer"><g class="x"/><g class="y"/></g><g class="zerolinelayer"/><g class="layer-between"><g class="shapelayer"/><g class="imagelayer"/></g><path class="xlines-below"/><path class="ylines-below"/><g class="overlines-below"/><g class="xaxislayer-below"/><g class="yaxislayer-below"/><g class="overaxes-below"/><g class="overplot"><g class="xy" transform="translate(20,0)" clip-path="url(#clip534719xyplot)"><g class="scatterlayer mlayer"><g class="trace scatter trace19ac7f" style="stroke-miterlimit: 2; opacity: 1;"><g class="fills"/><g class="errorbars"/><g class="lines"><path class="js-line" d="M184.84,406.25Q233.63,380.21 233.63,367.19C233.63,354.17 184.84,341.15 184.84,328.13C184.84,315.11 233.63,302.08 233.63,289.06C233.63,276.04 184.84,263.02 184.84,250C184.84,236.98 233.63,223.96 233.63,210.94C233.63,197.92 184.84,184.9 184.84,171.88C184.84,158.86 233.63,145.83 233.63,132.81Q233.63,119.79 184.84,93.75" style="vector-effect: none; fill: none; stroke: rgb(34, 63, 89); stroke-opacity: 1; stroke-width: 1px; opacity: 1;"/></g><g class="points"><path class="point" transform="translate(184.84,406.25)" d="M5,0A5,5 0 1,1 0,-5A5,5 0 0,1 5,0Z" style="opacity: 1; stroke-width: 0px; fill: rgb(34, 63, 89); fill-opacity: 1;"/><path class="point" transform="translate(233.63,367.19)" d="M5,0A5,5 0 1,1 0,-5A5,5 0 0,1 5,0Z" style="opacity: 1; stroke-width: 0px; fill: rgb(34, 63, 89); fill-opacity: 1;"/><path class="point" transform="translate(184.84,328.13)" d="M5,0A5,5 0 1,1 0,-5A5,5 0 0,1 5,0Z" style="opacity: 1; stroke-width: 0px; fill: rgb(34, 63, 89); fill-opacity: 1;"/><path class="point" transform="translate(233.63,289.06)" d="M5,0A5,5 0 1,1 0,-5A5,5 0 0,1 5,0Z" style="opacity: 1; stroke-width: 0px; fill: rgb(34, 63, 89); fill-opacity: 1;"/><path class="point" transform="translate(184.84,250)" d="M5,0A5,5 0 1,1 0,-5A5,5 0 0,1 5,0Z" style="opacity: 1; stroke-width: 0px; fill: rgb(34, 63, 89); fill-opacity: 1;"/><path class="point" transform="translate(233.63,210.94)" d="M5,0A5,5 0 1,1 0,-5A5,5 0 0,1 5,0Z" style="opacity: 1; stroke-width: 0px; fill: rgb(34, 63, 89); fill-opacity: 1;"/><path class="point" transform="translate(184.84,171.88)" d="M5,0A5,5 0 1,1 0,-5A5,5 0 0,1 5,0Z" style="opacity: 1; stroke-width: 0px; fill: rgb(34, 63, 89); fill-opacity: 1;"/><path class="point" transform="translate(233.63,132.81)" d="M5,0A5,5 0 1,1 0,-5A5,5 0 0,1 5,0Z" style="opacity: 1; stroke-width: 0px; fill: rgb(34, 63, 89); fill-opacity: 1;"/><path class="point" transform="translate(184.84,93.75)" d="M5,0A5,5 0 1,1 0,-5A5,5 0 0,1 5,0Z" style="opacity: 1; stroke-width: 0px; fill: rgb(34, 63, 89); fill-opacity: 1;"/></g><g class="text"/></g><g class="trace scatter trace7d81da" style="stroke-miterlimit: 2; opacity: 1;"><g class="fills"/><g class="errorbars"/><g class="lines"><path class="js-line" d="M184.84,406.25Q217.37,380.21 233.63,367.19C249.89,354.17 266.16,341.15 282.42,328.13C298.68,315.11 314.95,302.08 331.21,289.06C347.47,276.04 363.74,263.02 380,250C396.26,236.98 412.53,223.96 428.79,210.94C445.05,197.92 461.32,184.9 477.58,171.88C493.84,158.86 510.11,145.83 526.37,132.81Q542.63,119.79 575.16,93.75" style="vector-effect: none; fill: none; stroke: rgb(34, 63, 89); stroke-opacity: 1; stroke-width: 1px; opacity: 1;"/></g><g class="points"><path class="point" transform="translate(184.84,406.25)" d="M5,0A5,5 0 1,1 0,-5A5,5 0 0,1 5,0Z" style="opacity: 0.4; stroke-width: 0px; fill: rgb(34, 63, 89); fill-opacity: 1;"/><path class="point" transform="translate(233.63,367.19)" d="M5,0A5,5 0 1,1 0,-5A5,5 0 0,1 5,0Z" style="opacity: 0.4; stroke-width: 0px; fill: rgb(34, 63, 89); fill-opacity: 1;"/><path class="point" transform="translate(282.42,328.13)" d="M5,0A5,5 0 1,1 0,-5A5,5 0 0,1 5,0Z" style="opacity: 0.4; stroke-width: 0px; fill: rgb(34, 63, 89); fill-opacity: 1;"/><path class="point" transform="translate(331.21,289.06)" d="M5,0A5,5 0 1,1 0,-5A5,5 0 0,1 5,0Z" style="opacity: 0.4; stroke-width: 0px; fill: rgb(34, 63, 89); fill-opacity: 1;"/><path class="point" transform="translate(380,250)" d="M5,0A5,5 0 1,1 0,-5A5,5 0 0,1 5,0Z" style="opacity: 0.4; stroke-width: 0px; fill: rgb(34, 63, 89); fill-opacity: 1;"/><path class="point" transform="translate(428.79,210.94)" d="M5,0A5,5 0 1,1 0,-5A5,5 0 0,1 5,0Z" style="opacity: 0.4; stroke-width: 0px; fill: rgb(34, 63, 89); fill-opacity: 1;"/><path class="point" transform="translate(477.58,171.88)" d="M5,0A5,5 0 1,1 0,-5A5,5 0 0,1 5,0Z" style="opacity: 0.4; stroke-width: 0px; fill: rgb(34, 63, 89); fill-opacity: 1;"/><path class="point" transform="translate(526.37,132.81)" d="M5,0A5,5 0 1,1 0,-5A5,5 0 0,1 5,0Z" style="opacity: 0.4; stroke-width: 0px; fill: rgb(34, 63, 89); fill-opacity: 1;"/><path class="point" transform="translate(575.16,93.75)" d="M5,0A5,5 0 1,1 0,-5A5,5 0 0,1 5,0Z" style="opacity: 0.4; stroke-width: 0px; fill: rgb(34, 63, 89); fill-opacity: 1;"/></g><g class="text"/></g><g class="trace scatter trace4d6711" style="stroke-miterlimit: 2; opacity: 1;"><g class="fills"/><g class="errorbars"/><g class="lines"><path class="js-line" d="M59.84,93.75" style="vector-effect: none; fill: none; stroke: rgb(0, 204, 150); stroke-opacity: 1; stroke-width: 2px; opacity: 1;"/></g><g class="points"/><g class="text"><g class="textpoint" transform="translate(0,-3)"><text x="59.84" y="93.75" text-anchor="middle" style="font-family: 'Open Sans', verdana, arial, sans-serif; font-size: 12px; fill: rgb(42, 63, 95); fill-opacity: 1; white-space: pre;">Extracellular</text></g></g></g><g class="trace scatter tracebf5c3a" style="stroke-miterlimit: 2; opacity: 1;"><g class="fills"/><g class="errorbars"/><g class="lines"><path class="js-line" d="M59.84,409.38" style="vector-effect: none; fill: none; stroke: rgb(171, 99, 250); stroke-opacity: 1; stroke-width: 2px; opacity: 1;"/></g><g class="points"/><g class="text"><g class="textpoint" transform="translate(0,9)"><text x="59.84" y="409.38" text-anchor="middle" style="font-family: 'Open Sans', verdana, arial, sans-serif; font-size: 12px; fill: rgb(42, 63, 95); fill-opacity: 1; white-space: pre;">Intracellular</text></g></g></g></g></g></g><g class="zerolinelayer-above"/><path class="xlines-above crisp" d="M0,0" style="fill: none;"/><path class="ylines-above crisp" d="M0,0" style="fill: none;"/><g class="overlines-above"/><g class="xaxislayer-above"/><g class="yaxislayer-above"/><g class="overaxes-above"/></g></g><g class="polarlayer"/><g class="smithlayer"/><g class="ternarylayer"/><g class="geolayer"/><g class="funnelarealayer"/><g class="pielayer"/><g class="iciclelayer"/><g class="treemaplayer"/><g class="sunburstlayer"/><g class="glimages"/><defs id="topdefs-534719"><g class="clips"/></defs><g class="layer-above"><g class="imagelayer"/><g class="shapelayer"><g class="shape-group" data-index="0" clip-path="url(#clip534719xy)"><path data-index="0" fill-rule="evenodd" d="M236.09,406.25A31.25,31.25 0 1,1 204.84,375A31.25,31.25 0 0,1 236.09,406.25Z" style="opacity: 0.4; stroke: rgb(34, 63, 89); stroke-opacity: 1; fill: rgb(91, 155, 213); fill-opacity: 1; stroke-width: 2px;"/></g><g class="shape-group" data-index="1" clip-path="url(#clip534719xy)"><path data-index="1" fill-rule="evenodd" d="M284.88,367.19A31.25,31.25 0 1,1 253.63,335.94A31.25,31.25 0 0,1 284.88,367.19Z" style="opacity: 0.4; stroke: rgb(34, 63, 89); stroke-opacity: 1; fill: rgb(91, 155, 213); fill-opacity: 1; stroke-width: 2px;"/></g><g class="shape-group" data-index="2" clip-path="url(#clip534719xy)"><path data-index="2" fill-rule="evenodd" d="M333.66999999999996,328.13A31.25,31.25 0 1,1 302.41999999999996,296.88A31.25,31.25 0 0,1 333.66999999999996,328.13Z" style="opacity: 0.4; stroke: rgb(34, 63, 89); stroke-opacity: 1; fill: rgb(91, 155, 213); fill-opacity: 1; stroke-width: 2px;"/></g><g class="shape-group" data-index="3" clip-path="url(#clip534719xy)"><path data-index="3" fill-rule="evenodd" d="M382.46,289.06A31.25,31.25 0 1,1 351.21,257.81A31.25,31.25 0 0,1 382.46,289.06Z" style="opacity: 0.4; stroke: rgb(34, 63, 89); stroke-opacity: 1; fill: rgb(91, 155, 213); fill-opacity: 1; stroke-width: 2px;"/></g><g class="shape-group" data-index="4" clip-path="url(#clip534719xy)"><path data-index="4" fill-rule="evenodd" d="M431.25,250A31.25,31.25 0 1,1 400,218.75A31.25,31.25 0 0,1 431.25,250Z" style="opacity: 0.4; stroke: rgb(34, 63, 89); stroke-opacity: 1; fill: rgb(91, 155, 213); fill-opacity: 1; stroke-width: 2px;"/></g><g class="shape-group" data-index="5" clip-path="url(#clip534719xy)"><path data-index="5" fill-rule="evenodd" d="M480.04,210.94A31.25,31.25 0 1,1 448.79,179.69A31.25,31.25 0 0,1 480.04,210.94Z" style="opacity: 0.4; stroke: rgb(34, 63, 89); stroke-opacity: 1; fill: rgb(91, 155, 213); fill-opacity: 1; stroke-width: 2px;"/></g><g class="shape-group" data-index="6" clip-path="url(#clip534719xy)"><path data-index="6" fill-rule="evenodd" d="M528.8299999999999,171.88A31.249999999999943,31.25 0 1,1 497.5799999999999,140.63A31.249999999999943,31.25 0 0,1 528.8299999999999,171.88Z" style="opacity: 0.4; stroke: rgb(34, 63, 89); stroke-opacity: 1; fill: rgb(91, 155, 213); fill-opacity: 1; stroke-width: 2px;"/></g><g class="shape-group" data-index="7" clip-path="url(#clip534719xy)"><path data-index="7" fill-rule="evenodd" d="M577.62,132.81A31.25,31.25 0 1,1 546.37,101.56A31.25,31.25 0 0,1 577.62,132.81Z" style="opacity: 0.4; stroke: rgb(34, 63, 89); stroke-opacity: 1; fill: rgb(91, 155, 213); fill-opacity: 1; stroke-width: 2px;"/></g><g class="shape-group" data-index="8" clip-path="url(#clip534719xy)"><path data-index="8" fill-rule="evenodd" d="M626.41,93.75A31.25,31.25 0 1,1 595.16,62.5A31.25,31.25 0 0,1 626.41,93.75Z" style="opacity: 0.4; stroke: rgb(34, 63, 89); stroke-opacity: 1; fill: rgb(91, 155, 213); fill-opacity: 1; stroke-width: 2px;"/></g></g></g><g class="infolayer"><g class="g-gtitle"/></g></svg>